<mxfile host="app.diagrams.net" modified="2023-10-13T06:37:50.797Z" agent="Mozilla/5.0 (Windows NT 10.0; Win64; x64) AppleWebKit/537.36 (KHTML, like Gecko) Chrome/117.0.0.0 Safari/537.36" etag="vfJiqJdIKJhuiRQmsDdE" version="22.0.4" type="github" pages="2">
  <diagram name="第 1 页" id="DKHdwaS_EgXVkoqLaVi4">
    <mxGraphModel dx="2261" dy="758" grid="1" gridSize="10" guides="1" tooltips="1" connect="1" arrows="1" fold="1" page="1" pageScale="1" pageWidth="827" pageHeight="1169" math="0" shadow="0">
      <root>
        <mxCell id="0" />
        <mxCell id="1" parent="0" />
        <mxCell id="t237Dnn7dBlNFPeY4iZS-1" value="输入SQL" style="strokeWidth=2;html=1;shape=mxgraph.flowchart.start_2;whiteSpace=wrap;" vertex="1" parent="1">
          <mxGeometry x="400" y="50" width="100" height="100" as="geometry" />
        </mxCell>
        <mxCell id="t237Dnn7dBlNFPeY4iZS-7" style="edgeStyle=orthogonalEdgeStyle;rounded=0;orthogonalLoop=1;jettySize=auto;html=1;exitX=1;exitY=0.5;exitDx=0;exitDy=0;exitPerimeter=0;" edge="1" parent="1" source="t237Dnn7dBlNFPeY4iZS-2" target="t237Dnn7dBlNFPeY4iZS-6">
          <mxGeometry relative="1" as="geometry" />
        </mxCell>
        <mxCell id="t237Dnn7dBlNFPeY4iZS-9" value="否" style="edgeLabel;html=1;align=center;verticalAlign=middle;resizable=0;points=[];" vertex="1" connectable="0" parent="t237Dnn7dBlNFPeY4iZS-7">
          <mxGeometry x="-0.2667" y="1" relative="1" as="geometry">
            <mxPoint as="offset" />
          </mxGeometry>
        </mxCell>
        <mxCell id="t237Dnn7dBlNFPeY4iZS-2" value="SQL是否符合要求" style="strokeWidth=2;html=1;shape=mxgraph.flowchart.decision;whiteSpace=wrap;" vertex="1" parent="1">
          <mxGeometry x="400" y="210" width="100" height="100" as="geometry" />
        </mxCell>
        <mxCell id="t237Dnn7dBlNFPeY4iZS-3" style="edgeStyle=orthogonalEdgeStyle;rounded=0;orthogonalLoop=1;jettySize=auto;html=1;entryX=0.5;entryY=0;entryDx=0;entryDy=0;entryPerimeter=0;" edge="1" parent="1" source="t237Dnn7dBlNFPeY4iZS-1" target="t237Dnn7dBlNFPeY4iZS-2">
          <mxGeometry relative="1" as="geometry" />
        </mxCell>
        <mxCell id="t237Dnn7dBlNFPeY4iZS-11" style="edgeStyle=orthogonalEdgeStyle;rounded=0;orthogonalLoop=1;jettySize=auto;html=1;entryX=0.5;entryY=0;entryDx=0;entryDy=0;" edge="1" parent="1" source="t237Dnn7dBlNFPeY4iZS-4" target="t237Dnn7dBlNFPeY4iZS-10">
          <mxGeometry relative="1" as="geometry" />
        </mxCell>
        <mxCell id="t237Dnn7dBlNFPeY4iZS-13" style="edgeStyle=orthogonalEdgeStyle;rounded=0;orthogonalLoop=1;jettySize=auto;html=1;entryX=1;entryY=0.5;entryDx=0;entryDy=0;" edge="1" parent="1" source="t237Dnn7dBlNFPeY4iZS-4" target="t237Dnn7dBlNFPeY4iZS-12">
          <mxGeometry relative="1" as="geometry" />
        </mxCell>
        <mxCell id="t237Dnn7dBlNFPeY4iZS-4" value="发送SQL" style="strokeWidth=2;html=1;shape=mxgraph.flowchart.direct_data;whiteSpace=wrap;" vertex="1" parent="1">
          <mxGeometry x="220" y="230" width="100" height="60" as="geometry" />
        </mxCell>
        <mxCell id="t237Dnn7dBlNFPeY4iZS-5" style="edgeStyle=orthogonalEdgeStyle;rounded=0;orthogonalLoop=1;jettySize=auto;html=1;entryX=1.1;entryY=0.5;entryDx=0;entryDy=0;entryPerimeter=0;" edge="1" parent="1" source="t237Dnn7dBlNFPeY4iZS-2" target="t237Dnn7dBlNFPeY4iZS-4">
          <mxGeometry relative="1" as="geometry" />
        </mxCell>
        <mxCell id="t237Dnn7dBlNFPeY4iZS-8" value="是" style="edgeLabel;html=1;align=center;verticalAlign=middle;resizable=0;points=[];" vertex="1" connectable="0" parent="t237Dnn7dBlNFPeY4iZS-5">
          <mxGeometry x="-0.08" y="-1" relative="1" as="geometry">
            <mxPoint as="offset" />
          </mxGeometry>
        </mxCell>
        <mxCell id="t237Dnn7dBlNFPeY4iZS-6" value="返回不符合原因" style="strokeWidth=2;html=1;shape=mxgraph.flowchart.direct_data;whiteSpace=wrap;" vertex="1" parent="1">
          <mxGeometry x="560" y="230" width="100" height="60" as="geometry" />
        </mxCell>
        <mxCell id="t237Dnn7dBlNFPeY4iZS-10" value="Presto处理" style="rounded=1;whiteSpace=wrap;html=1;absoluteArcSize=1;arcSize=14;strokeWidth=2;" vertex="1" parent="1">
          <mxGeometry x="220" y="340" width="100" height="100" as="geometry" />
        </mxCell>
        <mxCell id="t237Dnn7dBlNFPeY4iZS-12" value="Spark处理" style="rounded=1;whiteSpace=wrap;html=1;absoluteArcSize=1;arcSize=14;strokeWidth=2;" vertex="1" parent="1">
          <mxGeometry x="40" y="210" width="100" height="100" as="geometry" />
        </mxCell>
        <mxCell id="t237Dnn7dBlNFPeY4iZS-14" value="解析发送参数" style="strokeWidth=2;html=1;shape=mxgraph.flowchart.document2;whiteSpace=wrap;size=0.25;" vertex="1" parent="1">
          <mxGeometry x="-140" y="230" width="100" height="60" as="geometry" />
        </mxCell>
        <mxCell id="t237Dnn7dBlNFPeY4iZS-15" style="edgeStyle=orthogonalEdgeStyle;rounded=0;orthogonalLoop=1;jettySize=auto;html=1;entryX=1;entryY=0.5;entryDx=0;entryDy=0;entryPerimeter=0;" edge="1" parent="1" source="t237Dnn7dBlNFPeY4iZS-12" target="t237Dnn7dBlNFPeY4iZS-14">
          <mxGeometry relative="1" as="geometry" />
        </mxCell>
        <mxCell id="t237Dnn7dBlNFPeY4iZS-16" value="是否符合" style="strokeWidth=2;html=1;shape=mxgraph.flowchart.decision;whiteSpace=wrap;" vertex="1" parent="1">
          <mxGeometry x="-140" y="360" width="100" height="100" as="geometry" />
        </mxCell>
        <mxCell id="t237Dnn7dBlNFPeY4iZS-17" style="edgeStyle=orthogonalEdgeStyle;rounded=0;orthogonalLoop=1;jettySize=auto;html=1;entryX=0.5;entryY=0;entryDx=0;entryDy=0;entryPerimeter=0;" edge="1" parent="1" source="t237Dnn7dBlNFPeY4iZS-14" target="t237Dnn7dBlNFPeY4iZS-16">
          <mxGeometry relative="1" as="geometry" />
        </mxCell>
        <mxCell id="t237Dnn7dBlNFPeY4iZS-25" style="edgeStyle=orthogonalEdgeStyle;rounded=0;orthogonalLoop=1;jettySize=auto;html=1;entryX=0.5;entryY=0;entryDx=0;entryDy=0;" edge="1" parent="1" source="t237Dnn7dBlNFPeY4iZS-18" target="t237Dnn7dBlNFPeY4iZS-24">
          <mxGeometry relative="1" as="geometry" />
        </mxCell>
        <mxCell id="t237Dnn7dBlNFPeY4iZS-27" value="计算成功" style="edgeLabel;html=1;align=center;verticalAlign=middle;resizable=0;points=[];" vertex="1" connectable="0" parent="t237Dnn7dBlNFPeY4iZS-25">
          <mxGeometry x="-0.175" relative="1" as="geometry">
            <mxPoint as="offset" />
          </mxGeometry>
        </mxCell>
        <mxCell id="t237Dnn7dBlNFPeY4iZS-18" value="计算传过来的SQL" style="strokeWidth=2;html=1;shape=mxgraph.flowchart.start_1;whiteSpace=wrap;" vertex="1" parent="1">
          <mxGeometry x="-140" y="530" width="100" height="60" as="geometry" />
        </mxCell>
        <mxCell id="t237Dnn7dBlNFPeY4iZS-19" style="edgeStyle=orthogonalEdgeStyle;rounded=0;orthogonalLoop=1;jettySize=auto;html=1;entryX=0.5;entryY=0;entryDx=0;entryDy=0;entryPerimeter=0;" edge="1" parent="1" source="t237Dnn7dBlNFPeY4iZS-16" target="t237Dnn7dBlNFPeY4iZS-18">
          <mxGeometry relative="1" as="geometry" />
        </mxCell>
        <mxCell id="t237Dnn7dBlNFPeY4iZS-23" value="是" style="edgeLabel;html=1;align=center;verticalAlign=middle;resizable=0;points=[];" vertex="1" connectable="0" parent="t237Dnn7dBlNFPeY4iZS-19">
          <mxGeometry x="-0.1429" y="-3" relative="1" as="geometry">
            <mxPoint as="offset" />
          </mxGeometry>
        </mxCell>
        <mxCell id="t237Dnn7dBlNFPeY4iZS-20" value="返回原因" style="strokeWidth=2;html=1;shape=mxgraph.flowchart.start_1;whiteSpace=wrap;" vertex="1" parent="1">
          <mxGeometry x="-310" y="380" width="100" height="60" as="geometry" />
        </mxCell>
        <mxCell id="t237Dnn7dBlNFPeY4iZS-21" style="edgeStyle=orthogonalEdgeStyle;rounded=0;orthogonalLoop=1;jettySize=auto;html=1;entryX=1;entryY=0.5;entryDx=0;entryDy=0;entryPerimeter=0;" edge="1" parent="1" source="t237Dnn7dBlNFPeY4iZS-16" target="t237Dnn7dBlNFPeY4iZS-20">
          <mxGeometry relative="1" as="geometry" />
        </mxCell>
        <mxCell id="t237Dnn7dBlNFPeY4iZS-22" value="否" style="edgeLabel;html=1;align=center;verticalAlign=middle;resizable=0;points=[];" vertex="1" connectable="0" parent="t237Dnn7dBlNFPeY4iZS-21">
          <mxGeometry x="-0.0286" y="-1" relative="1" as="geometry">
            <mxPoint as="offset" />
          </mxGeometry>
        </mxCell>
        <mxCell id="t237Dnn7dBlNFPeY4iZS-24" value="写入hive" style="rounded=1;whiteSpace=wrap;html=1;absoluteArcSize=1;arcSize=14;strokeWidth=2;" vertex="1" parent="1">
          <mxGeometry x="-140" y="670" width="100" height="100" as="geometry" />
        </mxCell>
        <mxCell id="t237Dnn7dBlNFPeY4iZS-28" value="失败原因返回" style="strokeWidth=2;html=1;shape=mxgraph.flowchart.start_1;whiteSpace=wrap;" vertex="1" parent="1">
          <mxGeometry x="-310" y="530" width="100" height="60" as="geometry" />
        </mxCell>
        <mxCell id="t237Dnn7dBlNFPeY4iZS-29" style="edgeStyle=orthogonalEdgeStyle;rounded=0;orthogonalLoop=1;jettySize=auto;html=1;entryX=1;entryY=0.5;entryDx=0;entryDy=0;entryPerimeter=0;" edge="1" parent="1" source="t237Dnn7dBlNFPeY4iZS-18" target="t237Dnn7dBlNFPeY4iZS-28">
          <mxGeometry relative="1" as="geometry" />
        </mxCell>
        <mxCell id="t237Dnn7dBlNFPeY4iZS-30" value="返回数据" style="strokeWidth=2;html=1;shape=mxgraph.flowchart.document2;whiteSpace=wrap;size=0.25;" vertex="1" parent="1">
          <mxGeometry x="70" y="690" width="100" height="60" as="geometry" />
        </mxCell>
        <mxCell id="t237Dnn7dBlNFPeY4iZS-31" style="edgeStyle=orthogonalEdgeStyle;rounded=0;orthogonalLoop=1;jettySize=auto;html=1;entryX=0;entryY=0.5;entryDx=0;entryDy=0;entryPerimeter=0;" edge="1" parent="1" source="t237Dnn7dBlNFPeY4iZS-24" target="t237Dnn7dBlNFPeY4iZS-30">
          <mxGeometry relative="1" as="geometry" />
        </mxCell>
        <mxCell id="t237Dnn7dBlNFPeY4iZS-35" style="edgeStyle=orthogonalEdgeStyle;rounded=0;orthogonalLoop=1;jettySize=auto;html=1;" edge="1" parent="1" source="t237Dnn7dBlNFPeY4iZS-32" target="t237Dnn7dBlNFPeY4iZS-34">
          <mxGeometry relative="1" as="geometry" />
        </mxCell>
        <mxCell id="t237Dnn7dBlNFPeY4iZS-36" value="失败" style="edgeLabel;html=1;align=center;verticalAlign=middle;resizable=0;points=[];" vertex="1" connectable="0" parent="t237Dnn7dBlNFPeY4iZS-35">
          <mxGeometry x="-0.16" y="5" relative="1" as="geometry">
            <mxPoint as="offset" />
          </mxGeometry>
        </mxCell>
        <mxCell id="t237Dnn7dBlNFPeY4iZS-38" style="edgeStyle=orthogonalEdgeStyle;rounded=0;orthogonalLoop=1;jettySize=auto;html=1;" edge="1" parent="1" source="t237Dnn7dBlNFPeY4iZS-32">
          <mxGeometry relative="1" as="geometry">
            <mxPoint x="410" y="550" as="targetPoint" />
          </mxGeometry>
        </mxCell>
        <mxCell id="t237Dnn7dBlNFPeY4iZS-39" value="成功" style="edgeLabel;html=1;align=center;verticalAlign=middle;resizable=0;points=[];" vertex="1" connectable="0" parent="t237Dnn7dBlNFPeY4iZS-38">
          <mxGeometry x="-0.116" y="-1" relative="1" as="geometry">
            <mxPoint as="offset" />
          </mxGeometry>
        </mxCell>
        <mxCell id="t237Dnn7dBlNFPeY4iZS-32" value="presto服务处理" style="strokeWidth=2;html=1;shape=mxgraph.flowchart.decision;whiteSpace=wrap;" vertex="1" parent="1">
          <mxGeometry x="220" y="500" width="100" height="100" as="geometry" />
        </mxCell>
        <mxCell id="t237Dnn7dBlNFPeY4iZS-33" style="edgeStyle=orthogonalEdgeStyle;rounded=0;orthogonalLoop=1;jettySize=auto;html=1;entryX=0.5;entryY=0;entryDx=0;entryDy=0;entryPerimeter=0;" edge="1" parent="1" source="t237Dnn7dBlNFPeY4iZS-10" target="t237Dnn7dBlNFPeY4iZS-32">
          <mxGeometry relative="1" as="geometry" />
        </mxCell>
        <mxCell id="t237Dnn7dBlNFPeY4iZS-34" value="返回原因" style="strokeWidth=2;html=1;shape=mxgraph.flowchart.start_1;whiteSpace=wrap;" vertex="1" parent="1">
          <mxGeometry x="20" y="520" width="100" height="60" as="geometry" />
        </mxCell>
        <mxCell id="t237Dnn7dBlNFPeY4iZS-37" value="选择插件执行SQL" style="rounded=1;whiteSpace=wrap;html=1;absoluteArcSize=1;arcSize=14;strokeWidth=2;" vertex="1" parent="1">
          <mxGeometry x="414" y="500" width="100" height="100" as="geometry" />
        </mxCell>
        <mxCell id="t237Dnn7dBlNFPeY4iZS-47" style="edgeStyle=orthogonalEdgeStyle;rounded=0;orthogonalLoop=1;jettySize=auto;html=1;" edge="1" parent="1" source="t237Dnn7dBlNFPeY4iZS-40">
          <mxGeometry relative="1" as="geometry">
            <mxPoint x="640" y="660" as="targetPoint" />
          </mxGeometry>
        </mxCell>
        <mxCell id="t237Dnn7dBlNFPeY4iZS-40" value="插件处理" style="strokeWidth=2;html=1;shape=mxgraph.flowchart.decision;whiteSpace=wrap;" vertex="1" parent="1">
          <mxGeometry x="590" y="500" width="100" height="100" as="geometry" />
        </mxCell>
        <mxCell id="t237Dnn7dBlNFPeY4iZS-41" style="edgeStyle=orthogonalEdgeStyle;rounded=0;orthogonalLoop=1;jettySize=auto;html=1;entryX=0;entryY=0.5;entryDx=0;entryDy=0;entryPerimeter=0;" edge="1" parent="1" source="t237Dnn7dBlNFPeY4iZS-37" target="t237Dnn7dBlNFPeY4iZS-40">
          <mxGeometry relative="1" as="geometry" />
        </mxCell>
        <mxCell id="t237Dnn7dBlNFPeY4iZS-43" value="返回客户端展示" style="strokeWidth=2;html=1;shape=mxgraph.flowchart.start_2;whiteSpace=wrap;" vertex="1" parent="1">
          <mxGeometry x="770" y="500" width="100" height="100" as="geometry" />
        </mxCell>
        <mxCell id="t237Dnn7dBlNFPeY4iZS-44" style="edgeStyle=orthogonalEdgeStyle;rounded=0;orthogonalLoop=1;jettySize=auto;html=1;entryX=0;entryY=0.5;entryDx=0;entryDy=0;entryPerimeter=0;" edge="1" parent="1" source="t237Dnn7dBlNFPeY4iZS-40" target="t237Dnn7dBlNFPeY4iZS-43">
          <mxGeometry relative="1" as="geometry" />
        </mxCell>
        <mxCell id="t237Dnn7dBlNFPeY4iZS-45" value="成功" style="edgeLabel;html=1;align=center;verticalAlign=middle;resizable=0;points=[];" vertex="1" connectable="0" parent="t237Dnn7dBlNFPeY4iZS-44">
          <mxGeometry x="-0.15" y="-2" relative="1" as="geometry">
            <mxPoint as="offset" />
          </mxGeometry>
        </mxCell>
        <mxCell id="t237Dnn7dBlNFPeY4iZS-46" value="失败返回原因" style="strokeWidth=2;html=1;shape=mxgraph.flowchart.start_2;whiteSpace=wrap;" vertex="1" parent="1">
          <mxGeometry x="590" y="670" width="100" height="100" as="geometry" />
        </mxCell>
      </root>
    </mxGraphModel>
  </diagram>
  <diagram id="_LE0ZW2tcgWStBWWwnyV" name="第 2 页">
    <mxGraphModel dx="1434" dy="758" grid="1" gridSize="10" guides="1" tooltips="1" connect="1" arrows="1" fold="1" page="1" pageScale="1" pageWidth="827" pageHeight="1169" math="0" shadow="0">
      <root>
        <mxCell id="0" />
        <mxCell id="1" parent="0" />
      </root>
    </mxGraphModel>
  </diagram>
</mxfile>
